# xmcd
#
# Track frame offsets: 
#        150
#        14786
#        30687
#        48507
#        66511
#        89121
#        112972
#        131063
#        143814
#        159532
#        175185
#        196265
#        211605
#        229256
#        245369
#
# Disc length: 3495 seconds
#
# Revision: 0
# Processed by: cddbd v1.5.2PL0 Copyright (c) Steve Scherf et al.
# Submitted via: ExactAudioCopy v0.99pb4
#
DISCID=d90da50f
DTITLE=Miguel Gallardo - Tesoros de Colección [CD1)
DYEAR=2008
DGENRE=Ballad
TTITLE0=Corazón Viajero
TTITLE1=Otro Ocupa Mi Lugar
TTITLE2=Extranjera
TTITLE3=Desnúdate, Desnúdame
TTITLE4=y Apago La Luz
TTITLE5=Seguirá Vivo en Mí
TTITLE6=Te Necesito
TTITLE7=Amor de Amantes
TTITLE8=Bella Desconocida
TTITLE9=Mientras Te Amo
TTITLE10=Si Quieres Tú
TTITLE11=Tú
TTITLE12=¡Ay Amor!
TTITLE13=Violinista
TTITLE14=Comenzar de Nuevo (Comecar de Novo)
EXTD=
EXTT0=
EXTT1=
EXTT2=
EXTT3=
EXTT4=
EXTT5=
EXTT6=
EXTT7=
EXTT8=
EXTT9=
EXTT10=
EXTT11=
EXTT12=
EXTT13=
EXTT14=
PLAYORDER=
